<?xml version="1.0" encoding="UTF-8"?>
<svg id="Layer_1" data-name="Layer 1" xmlns="http://www.w3.org/2000/svg" viewBox="0 0 1004.12 389.47">
  <defs>
    <style>
      .cls-1 {
        isolation: isolate;
        stroke: #165777;
      }

      .cls-1, .cls-2, .cls-3 {
        fill: none;
        stroke-linejoin: round;
        stroke-width: 4px;
      }

      .cls-1, .cls-4 {
        opacity: .15;
      }

      .cls-1, .cls-3 {
        stroke-linecap: round;
      }

      .cls-2, .cls-3 {
        stroke: #00283f;
      }
    </style>
  </defs>
  <g class="cls-4">
    <rect class="cls-3" x="136.15" y="101.33" width="117.43" height="286.14"/>
    <line class="cls-3" x1="161.72" y1="385.47" x2="161.72" y2="101.33"/>
    <line class="cls-3" x1="229.48" y1="385.47" x2="229.48" y2="101.33"/>
    <line class="cls-3" x1="195.6" y1="385.47" x2="195.6" y2="101.33"/>
    <line class="cls-3" x1="136.31" y1="131.36" x2="254.12" y2="131.36"/>
    <line class="cls-3" x1="136.31" y1="145.99" x2="254.12" y2="145.99"/>
    <line class="cls-3" x1="136.31" y1="182.18" x2="254.12" y2="182.18"/>
    <line class="cls-3" x1="136.31" y1="198.35" x2="254.12" y2="198.35"/>
    <line class="cls-3" x1="136.31" y1="236.08" x2="254.12" y2="236.08"/>
    <line class="cls-3" x1="136.31" y1="252.25" x2="254.12" y2="252.25"/>
    <line class="cls-3" x1="136.31" y1="291.52" x2="254.12" y2="291.52"/>
    <line class="cls-3" x1="136.31" y1="306.92" x2="254.12" y2="306.92"/>
    <line class="cls-3" x1="136.31" y1="340.03" x2="254.12" y2="340.03"/>
    <line class="cls-3" x1="136.31" y1="354.66" x2="254.12" y2="354.66"/>
    <rect class="cls-3" x="162.33" y="76.23" width="67.53" height="25.72"/>
    <rect class="cls-3" x="178.04" y="50.51" width="36.11" height="25.72"/>
  </g>
  <g class="cls-4">
    <rect class="cls-3" x="701.89" y="101.33" width="117.43" height="286.14"/>
    <line class="cls-3" x1="727.46" y1="385.47" x2="727.46" y2="101.33"/>
    <line class="cls-3" x1="795.22" y1="385.47" x2="795.22" y2="101.33"/>
    <line class="cls-3" x1="761.34" y1="385.47" x2="761.34" y2="101.33"/>
    <line class="cls-3" x1="702.05" y1="131.36" x2="819.86" y2="131.36"/>
    <line class="cls-3" x1="702.05" y1="145.99" x2="819.86" y2="145.99"/>
    <line class="cls-3" x1="702.05" y1="182.18" x2="819.86" y2="182.18"/>
    <line class="cls-3" x1="702.05" y1="198.35" x2="819.86" y2="198.35"/>
    <line class="cls-3" x1="702.05" y1="236.08" x2="819.86" y2="236.08"/>
    <line class="cls-3" x1="702.05" y1="252.25" x2="819.86" y2="252.25"/>
    <line class="cls-3" x1="702.05" y1="291.52" x2="819.86" y2="291.52"/>
    <line class="cls-3" x1="702.05" y1="306.92" x2="819.86" y2="306.92"/>
    <line class="cls-3" x1="702.05" y1="340.03" x2="819.86" y2="340.03"/>
    <line class="cls-3" x1="702.05" y1="354.66" x2="819.86" y2="354.66"/>
    <rect class="cls-3" x="728.07" y="76.23" width="67.53" height="25.72"/>
    <rect class="cls-3" x="743.78" y="50.51" width="36.11" height="25.72"/>
  </g>
  <g class="cls-4">
    <rect class="cls-3" x="567.68" y="100.25" width="125.51" height="286.52"/>
    <rect class="cls-3" x="583.93" y="126.51" width="15.17" height="26.64"/>
    <rect class="cls-3" x="609.87" y="126.51" width="15.17" height="26.64"/>
    <rect class="cls-3" x="635.82" y="126.51" width="15.17" height="26.64"/>
    <rect class="cls-3" x="661.85" y="126.51" width="15.17" height="26.64"/>
    <rect class="cls-3" x="583.93" y="166.55" width="15.17" height="26.64"/>
    <rect class="cls-3" x="609.87" y="166.55" width="15.17" height="26.64"/>
    <rect class="cls-3" x="635.82" y="166.55" width="15.17" height="26.64"/>
    <rect class="cls-3" x="661.85" y="166.55" width="15.17" height="26.64"/>
    <rect class="cls-3" x="583.93" y="242.78" width="15.17" height="22.79"/>
    <rect class="cls-3" x="609.87" y="242.78" width="15.17" height="22.79"/>
    <rect class="cls-3" x="635.82" y="242.78" width="15.17" height="22.79"/>
    <rect class="cls-3" x="661.85" y="242.78" width="15.17" height="22.79"/>
    <rect class="cls-3" x="583.93" y="323.94" width="15.17" height="22.79"/>
    <rect class="cls-3" x="609.87" y="323.94" width="15.17" height="22.79"/>
    <rect class="cls-3" x="635.82" y="323.94" width="15.17" height="22.79"/>
    <rect class="cls-3" x="661.85" y="323.94" width="15.17" height="22.79"/>
    <line class="cls-3" x1="583.46" y1="216.06" x2="676.63" y2="216.06"/>
    <line class="cls-3" x1="583.46" y1="228.38" x2="676.63" y2="228.38"/>
    <line class="cls-3" x1="583.46" y1="280.74" x2="676.63" y2="280.74"/>
    <line class="cls-3" x1="583.46" y1="293.83" x2="676.63" y2="293.83"/>
    <line class="cls-3" x1="583.46" y1="306.92" x2="676.63" y2="306.92"/>
    <rect class="cls-3" x="591.47" y="72.84" width="85.16" height="27.41"/>
    <rect class="cls-3" x="609.87" y="45.43" width="48.36" height="27.41"/>
    <line class="cls-3" x1="632.74" y1="45.12" x2="632.74" y2="2"/>
  </g>
  <g class="cls-4">
    <rect class="cls-3" x="2" y="100.25" width="125.51" height="286.52"/>
    <rect class="cls-3" x="18.25" y="126.51" width="15.17" height="26.64"/>
    <rect class="cls-3" x="44.2" y="126.51" width="15.17" height="26.64"/>
    <rect class="cls-3" x="70.15" y="126.51" width="15.17" height="26.64"/>
    <rect class="cls-3" x="96.17" y="126.51" width="15.17" height="26.64"/>
    <rect class="cls-3" x="18.25" y="166.55" width="15.17" height="26.64"/>
    <rect class="cls-3" x="44.2" y="166.55" width="15.17" height="26.64"/>
    <rect class="cls-3" x="70.15" y="166.55" width="15.17" height="26.64"/>
    <rect class="cls-3" x="96.17" y="166.55" width="15.17" height="26.64"/>
    <rect class="cls-3" x="18.25" y="242.78" width="15.17" height="22.79"/>
    <rect class="cls-3" x="44.2" y="242.78" width="15.17" height="22.79"/>
    <rect class="cls-3" x="70.15" y="242.78" width="15.17" height="22.79"/>
    <rect class="cls-3" x="96.17" y="242.78" width="15.17" height="22.79"/>
    <rect class="cls-3" x="18.25" y="323.94" width="15.17" height="22.79"/>
    <rect class="cls-3" x="44.2" y="323.94" width="15.17" height="22.79"/>
    <rect class="cls-3" x="70.15" y="323.94" width="15.17" height="22.79"/>
    <rect class="cls-3" x="96.17" y="323.94" width="15.17" height="22.79"/>
    <line class="cls-3" x1="17.79" y1="216.06" x2="110.96" y2="216.06"/>
    <line class="cls-3" x1="17.79" y1="228.38" x2="110.96" y2="228.38"/>
    <line class="cls-3" x1="17.79" y1="280.74" x2="110.96" y2="280.74"/>
    <line class="cls-3" x1="17.79" y1="293.83" x2="110.96" y2="293.83"/>
    <line class="cls-3" x1="17.79" y1="306.92" x2="110.96" y2="306.92"/>
    <rect class="cls-3" x="25.79" y="72.84" width="85.16" height="27.41"/>
    <rect class="cls-3" x="44.2" y="45.43" width="48.36" height="27.41"/>
    <line class="cls-3" x1="67.07" y1="45.12" x2="67.07" y2="2"/>
  </g>
  <g>
    <line class="cls-1" x1="472.35" y1="91.09" x2="488.83" y2="109.49"/>
    <g class="cls-4">
      <polygon class="cls-3" points="504.69 387.01 439.93 387.01 439.93 109.11 472.35 73.76 504.69 109.11 504.69 387.01"/>
      <path class="cls-3" d="M558.98,387.01h-54.29v-224c0-31.26,20.56-36.34,54.29-52.59v276.59Z"/>
      <g>
        <g>
          <line class="cls-2" x1="524.17" y1="325.4" x2="524.17" y2="339.26"/>
          <line class="cls-2" x1="538.8" y1="325.4" x2="538.8" y2="339.26"/>
        </g>
        <g>
          <line class="cls-2" x1="524.17" y1="296.14" x2="524.17" y2="310"/>
          <line class="cls-2" x1="538.8" y1="296.14" x2="538.8" y2="310"/>
        </g>
        <g>
          <line class="cls-2" x1="524.17" y1="266.88" x2="524.17" y2="280.74"/>
          <line class="cls-2" x1="538.8" y1="266.88" x2="538.8" y2="280.74"/>
        </g>
        <g>
          <line class="cls-2" x1="524.17" y1="237.62" x2="524.17" y2="251.48"/>
          <line class="cls-2" x1="538.8" y1="237.62" x2="538.8" y2="251.48"/>
        </g>
        <g>
          <line class="cls-2" x1="524.17" y1="208.36" x2="524.17" y2="222.22"/>
          <line class="cls-2" x1="538.8" y1="208.36" x2="538.8" y2="222.22"/>
        </g>
        <g>
          <line class="cls-2" x1="524.17" y1="179.1" x2="524.17" y2="192.96"/>
          <line class="cls-2" x1="538.8" y1="179.1" x2="538.8" y2="192.96"/>
        </g>
        <g>
          <line class="cls-2" x1="524.17" y1="149.84" x2="524.17" y2="163.7"/>
          <line class="cls-2" x1="538.8" y1="149.84" x2="538.8" y2="163.7"/>
        </g>
      </g>
      <path class="cls-3" d="M385.42,387.01h54.29v-224c0-31.26-20.56-36.34-54.29-52.59v276.59Z"/>
      <g>
        <g>
          <line class="cls-2" x1="417.91" y1="325.4" x2="417.91" y2="339.26"/>
          <line class="cls-2" x1="404.05" y1="325.4" x2="404.05" y2="339.26"/>
        </g>
        <g>
          <line class="cls-2" x1="417.91" y1="296.14" x2="417.91" y2="310"/>
          <line class="cls-2" x1="404.05" y1="296.14" x2="404.05" y2="310"/>
        </g>
        <g>
          <line class="cls-2" x1="417.91" y1="266.88" x2="417.91" y2="280.74"/>
          <line class="cls-2" x1="404.05" y1="266.88" x2="404.05" y2="280.74"/>
        </g>
        <g>
          <line class="cls-2" x1="417.91" y1="237.62" x2="417.91" y2="251.48"/>
          <line class="cls-2" x1="404.05" y1="237.62" x2="404.05" y2="251.48"/>
        </g>
        <g>
          <line class="cls-2" x1="417.91" y1="208.36" x2="417.91" y2="222.22"/>
          <line class="cls-2" x1="404.05" y1="208.36" x2="404.05" y2="222.22"/>
        </g>
        <g>
          <line class="cls-2" x1="417.91" y1="179.1" x2="417.91" y2="192.96"/>
          <line class="cls-2" x1="404.05" y1="179.1" x2="404.05" y2="192.96"/>
        </g>
        <g>
          <line class="cls-2" x1="417.91" y1="149.84" x2="417.91" y2="163.7"/>
          <line class="cls-2" x1="404.05" y1="149.84" x2="404.05" y2="163.7"/>
        </g>
      </g>
      <line class="cls-3" x1="459.49" y1="119.04" x2="459.49" y2="318.47"/>
      <line class="cls-3" x1="487.21" y1="119.04" x2="487.21" y2="318.47"/>
      <g>
        <line class="cls-3" x1="450.71" y1="313.08" x2="493.45" y2="313.08"/>
        <line class="cls-3" x1="450.71" y1="283.82" x2="493.45" y2="283.82"/>
        <line class="cls-3" x1="450.71" y1="254.56" x2="493.45" y2="254.56"/>
        <line class="cls-3" x1="450.71" y1="225.3" x2="493.45" y2="225.3"/>
        <line class="cls-3" x1="450.71" y1="196.04" x2="493.45" y2="196.04"/>
        <line class="cls-3" x1="450.71" y1="166.78" x2="493.45" y2="166.78"/>
        <line class="cls-3" x1="450.71" y1="137.52" x2="493.45" y2="137.52"/>
      </g>
    </g>
  </g>
  <g>
    <line class="cls-1" x1="915.49" y1="91.09" x2="931.97" y2="109.49"/>
    <g class="cls-4">
      <polygon class="cls-3" points="947.83 387.01 883.07 387.01 883.07 109.11 915.49 73.76 947.83 109.11 947.83 387.01"/>
      <path class="cls-3" d="M1002.12,387.01h-54.29v-224c0-31.26,20.56-36.34,54.29-52.59v276.59Z"/>
      <g>
        <g>
          <line class="cls-2" x1="967.31" y1="325.4" x2="967.31" y2="339.26"/>
          <line class="cls-2" x1="981.94" y1="325.4" x2="981.94" y2="339.26"/>
        </g>
        <g>
          <line class="cls-2" x1="967.31" y1="296.14" x2="967.31" y2="310"/>
          <line class="cls-2" x1="981.94" y1="296.14" x2="981.94" y2="310"/>
        </g>
        <g>
          <line class="cls-2" x1="967.31" y1="266.88" x2="967.31" y2="280.74"/>
          <line class="cls-2" x1="981.94" y1="266.88" x2="981.94" y2="280.74"/>
        </g>
        <g>
          <line class="cls-2" x1="967.31" y1="237.62" x2="967.31" y2="251.48"/>
          <line class="cls-2" x1="981.94" y1="237.62" x2="981.94" y2="251.48"/>
        </g>
        <g>
          <line class="cls-2" x1="967.31" y1="208.36" x2="967.31" y2="222.22"/>
          <line class="cls-2" x1="981.94" y1="208.36" x2="981.94" y2="222.22"/>
        </g>
        <g>
          <line class="cls-2" x1="967.31" y1="179.1" x2="967.31" y2="192.96"/>
          <line class="cls-2" x1="981.94" y1="179.1" x2="981.94" y2="192.96"/>
        </g>
        <g>
          <line class="cls-2" x1="967.31" y1="149.84" x2="967.31" y2="163.7"/>
          <line class="cls-2" x1="981.94" y1="149.84" x2="981.94" y2="163.7"/>
        </g>
      </g>
      <path class="cls-3" d="M828.56,387.01h54.29v-224c0-31.26-20.56-36.34-54.29-52.59v276.59Z"/>
      <g>
        <g>
          <line class="cls-2" x1="861.05" y1="325.4" x2="861.05" y2="339.26"/>
          <line class="cls-2" x1="847.19" y1="325.4" x2="847.19" y2="339.26"/>
        </g>
        <g>
          <line class="cls-2" x1="861.05" y1="296.14" x2="861.05" y2="310"/>
          <line class="cls-2" x1="847.19" y1="296.14" x2="847.19" y2="310"/>
        </g>
        <g>
          <line class="cls-2" x1="861.05" y1="266.88" x2="861.05" y2="280.74"/>
          <line class="cls-2" x1="847.19" y1="266.88" x2="847.19" y2="280.74"/>
        </g>
        <g>
          <line class="cls-2" x1="861.05" y1="237.62" x2="861.05" y2="251.48"/>
          <line class="cls-2" x1="847.19" y1="237.62" x2="847.19" y2="251.48"/>
        </g>
        <g>
          <line class="cls-2" x1="861.05" y1="208.36" x2="861.05" y2="222.22"/>
          <line class="cls-2" x1="847.19" y1="208.36" x2="847.19" y2="222.22"/>
        </g>
        <g>
          <line class="cls-2" x1="861.05" y1="179.1" x2="861.05" y2="192.96"/>
          <line class="cls-2" x1="847.19" y1="179.1" x2="847.19" y2="192.96"/>
        </g>
        <g>
          <line class="cls-2" x1="861.05" y1="149.84" x2="861.05" y2="163.7"/>
          <line class="cls-2" x1="847.19" y1="149.84" x2="847.19" y2="163.7"/>
        </g>
      </g>
      <line class="cls-3" x1="902.63" y1="119.04" x2="902.63" y2="318.47"/>
      <line class="cls-3" x1="930.35" y1="119.04" x2="930.35" y2="318.47"/>
      <g>
        <line class="cls-3" x1="893.85" y1="313.08" x2="936.59" y2="313.08"/>
        <line class="cls-3" x1="893.85" y1="283.82" x2="936.59" y2="283.82"/>
        <line class="cls-3" x1="893.85" y1="254.56" x2="936.59" y2="254.56"/>
        <line class="cls-3" x1="893.85" y1="225.3" x2="936.59" y2="225.3"/>
        <line class="cls-3" x1="893.85" y1="196.04" x2="936.59" y2="196.04"/>
        <line class="cls-3" x1="893.85" y1="166.78" x2="936.59" y2="166.78"/>
        <line class="cls-3" x1="893.85" y1="137.52" x2="936.59" y2="137.52"/>
      </g>
    </g>
  </g>
  <g class="cls-4">
    <rect class="cls-3" x="262.76" y="73.76" width="113.27" height="313.01"/>
    <rect class="cls-3" x="277.85" y="97.02" width="13.32" height="222.22"/>
    <rect class="cls-3" x="301.41" y="97.02" width="13.32" height="222.22"/>
    <rect class="cls-3" x="325.05" y="97.02" width="13.32" height="222.22"/>
    <rect class="cls-3" x="348.61" y="97.02" width="13.32" height="222.22"/>
    <rect class="cls-3" x="325.05" y="42.04" width="36.88" height="31.72"/>
    <line class="cls-3" x1="342.22" y1="42.04" x2="342.22" y2="14.32"/>
    <rect class="cls-3" x="276.39" y="53.05" width="34.96" height="20.71"/>
  </g>
</svg>