<?xml version="1.0" encoding="UTF-8"?>
<svg id="Layer_1" data-name="Layer 1" xmlns="http://www.w3.org/2000/svg" viewBox="0 0 230.99 369.89">
  <defs>
    <style>
      .cls-1 {
        stroke-width: 8px;
      }

      .cls-1, .cls-2 {
        fill: none;
        stroke: #165777;
        stroke-linecap: round;
        stroke-linejoin: round;
      }

      .cls-2 {
        stroke-width: 6px;
      }

      .cls-3 {
        fill: #fcbd73;
      }
    </style>
  </defs>
  <g>
    <path class="cls-3" d="M158.51,6.13c-10.16-8.17-24.52-8.17-34.67,0-35.02,28.49-77.17,84.41-72.15,149.31,1.28,15.76,5.14,30.82,10.62,45.18.35,1.05.82,1.98,1.4,3.04,36.89,69,118.03,69,154.8,0,.47-.93.93-1.98,1.4-3.04,5.6-14.24,9.46-29.42,10.62-45.18,5.25-65.03-36.89-120.83-72.03-149.31Z"/>
    <line class="cls-1" x1="141.24" y1="365.89" x2="141.24" y2="118.79"/>
    <path class="cls-2" d="M165.52,84.35c-4.2,4.79-5.25,11.21-3.62,16.93,5.37.23,10.74-1.87,14.48-6.19,4.2-4.79,5.25-11.21,3.62-16.93-5.25-.23-10.62,1.87-14.48,6.19Z"/>
    <path class="cls-2" d="M133.06,48.86c-.23,6.19,2.8,11.67,7.59,15.06,4.2-3.15,7-7.94,7.24-13.54.23-6.19-2.8-11.67-7.59-15.06-4.2,3.04-7,7.94-7.24,13.54Z"/>
    <path class="cls-2" d="M98.16,102.79c1.63,6.19,6.19,10.74,11.91,12.61,3.15-4.32,4.55-9.92,3.04-15.53-1.63-6.19-6.19-10.74-11.91-12.61-3.27,4.32-4.55,10.04-3.04,15.53Z"/>
    <path class="cls-2" d="M16.93,152.05c-1.19,5.24.59,10.48,4.15,14.14,4.06-1.98,7.22-5.74,8.31-10.48,1.19-5.24-.59-10.48-4.15-14.14-4.15,1.98-7.22,5.74-8.31,10.48Z"/>
    <path class="cls-2" d="M176.61,190.82c-4.2,3.74-5.95,9.34-5.14,14.59,4.67.82,9.69-.47,13.54-3.97,4.2-3.74,5.95-9.34,5.14-14.59-4.79-.7-9.81.58-13.54,3.97Z"/>
    <path class="cls-1" d="M105.4,180.66s10.74,28.84,35.84,30.7"/>
    <path class="cls-1" d="M141.12,181.36s22.76-9.81,24.63-33.74"/>
  </g>
  <g>
    <path class="cls-3" d="M94.42,304.87c-25.73,0-48.06,13.59-59.09,33.42-16.38,1.95-29.84,13.04-35.34,28.06h161.14c0-33.93-30.06-61.48-66.72-61.48Z"/>
    <line class="cls-1" x1="94.54" y1="330.56" x2="94.54" y2="365.21"/>
    <line class="cls-1" x1="117.54" y1="344.57" x2="94.54" y2="365.21"/>
  </g>
</svg>