<?xml version="1.0" encoding="UTF-8"?><svg id="a" xmlns="http://www.w3.org/2000/svg" viewBox="0 0 124 125.8"><defs><style>.b{fill:#ffbf73;}.c{fill:none;stroke:#cce1ea;stroke-linecap:round;stroke-linejoin:round;stroke-width:4px;}</style></defs><line class="c" x1="62" y1="2" x2="62" y2="25.1"/><line class="c" x1="41.2" y1="5.7" x2="49.1" y2="27.4"/><line class="c" x1="22.8" y1="16.2" x2="37.7" y2="34"/><line class="c" x1="9.2" y1="32.5" x2="29.3" y2="44"/><line class="c" x1="2" y1="52.3" x2="24.8" y2="56.4"/><line class="c" x1="2" y1="73.5" x2="24.8" y2="69.5"/><line class="c" x1="9.2" y1="93.4" x2="29.3" y2="81.8"/><line class="c" x1="22.8" y1="109.6" x2="37.7" y2="91.9"/><line class="c" x1="41.2" y1="120.2" x2="49.1" y2="98.4"/><line class="c" x1="62" y1="123.8" x2="62" y2="100.7"/><line class="c" x1="82.8" y1="120.2" x2="74.9" y2="98.4"/><line class="c" x1="101.2" y1="109.6" x2="86.3" y2="91.9"/><line class="c" x1="114.8" y1="93.4" x2="94.7" y2="81.8"/><line class="c" x1="122" y1="73.5" x2="99.2" y2="69.5"/><line class="c" x1="122" y1="52.3" x2="99.2" y2="56.4"/><line class="c" x1="114.8" y1="32.5" x2="94.7" y2="44"/><line class="c" x1="101.2" y1="16.2" x2="86.3" y2="34"/><line class="c" x1="82.8" y1="5.7" x2="74.9" y2="27.4"/><circle class="b" cx="62" cy="62.9" r="20.8"/></svg>