<?xml version="1.0" encoding="UTF-8"?><svg id="a" xmlns="http://www.w3.org/2000/svg" viewBox="0 0 728.3 123.9"><defs><style>.cls-1{fill:none;stroke:#cce1ea;stroke-linecap:round;stroke-linejoin:round;stroke-width:4px;}</style></defs><path class="cls-1" d="M640.06,57c.1-.7.1-1.5.1-2.2,0-14.8-12-26.7-26.7-26.7-5.7,0-11,1.8-15.3,4.8-3.2-11.2-13.5-19.3-25.7-19.3-2.1,0-4.1.2-6.1.7-6.7-7.5-16.5-12.3-27.4-12.3-18.7,0-34.2,14-36.5,32.1-.4,0-.8-.1-1.3-.1-11.5,0-20.8,9.3-20.8,20.8,0,.7,0,1.5.1,2.2h159.6Z"/><path class="cls-1" d="M108.7,81.6c-4.5-6.4-12-10.7-20.5-10.7-2,0-3.9.2-5.7.7-6.3-7-15.5-11.5-25.7-11.5-17.5,0-32,13.1-34.1,30-.4,0-.8-.1-1.2-.1-10.7,0-19.5,8.7-19.5,19.5,0,.7,0,1.4.1,2.1h101.9"/><line class="cls-1" x1="189.5" y1="99.8" x2="275.6" y2="99.8"/><line class="cls-1" x1="248.7" y1="121.9" x2="269.6" y2="121.9"/><line class="cls-1" x1="224.8" y1="109.6" x2="263.4" y2="109.6"/><line class="cls-1" x1="613.7" y1="9" x2="678.9" y2="9"/><line class="cls-1" x1="649" y1="24.5" x2="726.3" y2="24.5"/><path class="cls-1" d="M174.6,111.6c.9-2.1,1.4-4.4,1.4-6.9,0-9.3-7.4-16.8-16.6-16.8-2.3,0-4.5.5-6.5,1.3-3.7-9.9-13.2-17-24.3-17-13.3,0-24.2,10-25.7,22.8-1.1-.2-2.2-.4-3.3-.4-8.4,0-15.1,6.6-15.1,14.7,0,.7.1,1.5.2,2.2h89.9v.1h0Z"/></svg>