<?xml version="1.0" encoding="UTF-8"?><svg id="Layer_1" xmlns="http://www.w3.org/2000/svg" viewBox="0 0 137.75 37.91"><defs><style>.cls-1{fill:#165777;}</style></defs><path class="cls-1" d="M65.58,22.08c0,2.47-.51,4.36-1.53,5.69-1.02,1.33-2.46,1.99-4.31,1.99-1.53,0-2.76-.61-3.7-1.82l-.19,1.54h-4.2V8.12h4.69v7.52c.87-.99,2-1.49,3.38-1.49,1.87,0,3.32.67,4.34,2.02,1.02,1.34,1.53,3.24,1.53,5.67v.24h0ZM60.88,21.78c0-1.44-.19-2.47-.58-3.09-.39-.62-.98-.92-1.77-.92-1.06,0-1.79.4-2.2,1.21v5.97c.4.8,1.14,1.19,2.23,1.19s1.8-.54,2.1-1.61c.15-.53.22-1.44.22-2.75Z"/><path class="cls-1" d="M72.27,29.48h-4.7V8.12h4.7v21.36Z"/><path class="cls-1" d="M74.81,10.55c0-.67.24-1.21.72-1.64s1.11-.64,1.88-.64,1.4.21,1.88.64c.48.43.72.97.72,1.64s-.24,1.21-.72,1.64-1.11.64-1.88.64-1.4-.21-1.88-.64c-.48-.43-.72-.97-.72-1.64ZM79.79,29.48h-4.7v-15.05h4.7v15.05Z"/><path class="cls-1" d="M86.67,14.43l.15,1.77c1.04-1.36,2.47-2.04,4.3-2.04,1.57,0,2.74.47,3.51,1.4.77.94,1.18,2.35,1.2,4.23v9.69h-4.7v-9.5c0-.76-.15-1.32-.46-1.68-.31-.36-.86-.54-1.67-.54-.92,0-1.6.36-2.04,1.08v10.63h-4.69v-15.05h4.4Z"/><path class="cls-1" d="M104.15,23.88l-1.32,1.32v4.28h-4.69V8.11h4.69v11.35l.47-.63,3.53-4.39h5.62l-5.27,6.19,5.62,8.86h-5.37l-3.28-5.6h0Z"/><path class="cls-1" d="M120.65,29.76c-2.31,0-4.18-.69-5.6-2.07-1.43-1.38-2.14-3.17-2.14-5.38v-.39c0-1.54.29-2.9.86-4.07.57-1.18,1.4-2.09,2.5-2.73,1.09-.64,2.39-.97,3.89-.97,2.11,0,3.78.66,5.01,1.97,1.22,1.31,1.84,3.14,1.84,5.49v1.82h-9.32c.17.84.53,1.51,1.1,1.99s1.3.72,2.2.72c1.48,0,2.64-.52,3.48-1.56l2.14,2.53c-.58.81-1.41,1.45-2.48,1.93s-2.22.72-3.46.72h-.02ZM120.12,17.77c-1.37,0-2.19.91-2.45,2.73h4.73v-.36c.02-.75-.17-1.33-.57-1.75-.4-.41-.97-.62-1.71-.62Z"/><path class="cls-1" d="M137.67,18.68l-1.54-.11c-1.47,0-2.42.46-2.84,1.39v9.53h-4.69v-15.05h4.39l.15,1.93c.79-1.47,1.89-2.21,3.3-2.21.5,0,.94.06,1.31.17l-.08,4.35Z"/><path class="cls-1" d="M28.84,37.91c-.35,0-.69-.14-.94-.39l-8.95-8.95-8.95,8.95c-.25.25-.58.39-.94.39s-.69-.14-.94-.39L.39,29.77c-.52-.52-.52-1.35,0-1.87l8.95-8.95L.39,10.01c-.52-.52-.52-1.35,0-1.87L8.14.39c.25-.25.58-.39.94-.39s.69.14.94.39l8.95,8.95L27.9.39c.25-.25.58-.39.94-.39s.69.14.94.39l7.75,7.75c.52.52.52,1.35,0,1.87l-3.55,3.55c-.52.52-1.35.52-1.87,0s-.52-1.35,0-1.87l2.61-2.61-5.88-5.88-8.95,8.95c-.25.25-.58.39-.94.39s-.69-.14-.94-.39L9.08,3.19l-5.88,5.88,8.95,8.95c.52.52.52,1.35,0,1.87L3.19,28.84l5.88,5.88,8.95-8.95c.25-.25.58-.39.94-.39s.69.14.94.39l8.95,8.95,5.88-5.88-2.47-2.47c-.52-.52-.52-1.35,0-1.87s1.35-.52,1.87,0l3.4,3.4c.52.52.52,1.35,0,1.87l-7.75,7.75c-.25.25-.58.39-.94.39Z"/><path class="cls-1" d="M29.22,22.79c-.34,0-.68-.13-.94-.39l-2.51-2.51c-.25-.25-.39-.58-.39-.94s.14-.69.39-.94l2.55-2.55c.52-.52,1.35-.52,1.87,0s.52,1.35,0,1.87l-1.62,1.61,1.57,1.57c.52.52.52,1.35,0,1.87-.26.26-.6.39-.94.39l.02.02Z"/></svg>