<?xml version="1.0" encoding="UTF-8"?><svg id="a" xmlns="http://www.w3.org/2000/svg" viewBox="0 0 469.6 177.62"><defs><style>.b{fill:#ffbf73;}.c{fill:#fff;}.d{opacity:.49;}.d,.e,.f{isolation:isolate;}.g{fill:#72757c;}.h{fill:#135677;}.i{fill:#ffc88d;}.e{opacity:.2;}.f{opacity:.21;}.j{fill:#4dcbab;}</style></defs><path class="j" d="M24.2,143.02c-1.9-16.2.8-52.2,8.7-76.1,5.2-15.7,10-37.2,31.4-49.1C81.9,7.92,195.9-.18,259.7,6.32c35.6,3.6,65.1,38.5,83.5,67.5,60.6,11.1,62.1,11.1,76.3,15.5,14.2,4.3,28.1,15.2,28.1,31.5v39.7H25.9c-.6-10-1.1-7.6-1.7-17.5Z"/><g class="d"><path class="j" d="M420.5,86.22c-14.2-4.3-15.7-4.3-76.3-15.5-18.4-29-47.9-63.9-83.5-67.5-63.8-6.5-177.8,1.6-195.4,11.5-4.8,2.7-8.7,5.9-12.1,9.3,0,0,.1,0,.1-.1,17.6-9.9,131.6-18,195.4-11.5,33.5,3.4,64,34.6,82.7,62.4,2.2,3.3,5.7,5.5,9.6,6.2,54.3,10,53.7,10.1,67.5,14.3,14.2,4.3,28.1,15.2,28.1,31.5v30.4h12v-39.7c0-16.1-13.9-27-28.1-31.3Z"/></g><g class="f"><path class="g" d="M253.6,159.12c-.83,0-1.5-.67-1.5-1.5v-89.1c0-.83.67-1.5,1.5-1.5s1.5.67,1.5,1.5v89.1c0,.83-.67,1.5-1.5,1.5Z"/></g><g class="f"><path class="g" d="M111.3,159.12s-.03,0-.04,0c-.83-.02-1.48-.71-1.46-1.54l2.3-89.1c.02-.83.69-1.51,1.54-1.46.83.02,1.48.71,1.46,1.54l-2.3,89.1c-.02.81-.69,1.46-1.5,1.46Z"/></g><g class="e"><path class="g" d="M63.4,66.92c5.2-15.7,10-37.2,31.4-49.1,12.1-6.8,69.5-12.7,125-13.7-63-1.2-141.1,5.6-155.5,13.7-21.4,12-26.2,33.4-31.4,49.1-7.9,23.9-10.5,59.9-8.7,76.1.6,9.9,1.1,7.5,1.7,17.5h30.5c-.6-10-1.1-7.6-1.7-17.5-1.9-16.2.8-52.2,8.7-76.1Z"/></g><path class="h" d="M447.6,164.42H25.9c-2.12,0-3.86-1.65-3.99-3.76-.29-4.78-.54-6.52-.81-8.36-.28-1.91-.57-3.89-.88-8.93-2.06-17.83,1.07-54.07,8.89-77.71.53-1.59,1.05-3.24,1.59-4.93,4.93-15.57,11.07-34.95,31.67-46.41C82.23,3.14,198.67-3.92,260.11,2.34c35.68,3.63,64.73,36.68,82.82,63.76,1.81,2.64,4.61,4.47,7.63,4.98l12.72,2.33c42.1,7.71,44.62,8.17,57.37,11.98,14.29,4.33,30.95,16.17,30.95,35.33v39.7c0,2.21-1.79,4-4,4ZM29.63,156.42h413.97v-35.7c0-14.78-13.61-24.14-25.26-27.67-12.31-3.68-14.81-4.14-56.5-11.77l-12.66-2.32c-5.1-.85-9.81-3.9-12.88-8.37-17.16-25.69-44.42-56.97-77.01-60.28-61.96-6.31-176.32,1.6-193.03,11.01-17.84,9.92-23.21,26.88-27.95,41.84-.55,1.73-1.08,3.41-1.62,5.03-7.89,23.86-10.28,59.4-8.52,74.38,0,.07.02.15.02.22.29,4.78.54,6.52.81,8.36.2,1.36.4,2.76.62,5.28Z"/><path class="i" d="M253.7,74.12c-7.4-23.9-20.2-44.7-29.5-57.8,12.9.5,24.3,1.4,34.1,2.5,29.6,3.5,54,31.5,70.3,56.5l-74.9-1.2Z"/><g class="e"><path class="b" d="M268.8,54.32c-5.5-10,2.4-22,13.7-20.9,2.1.2,4.1.4,6.1.7,1.7.2,3.4.5,5,.9-10.6-8.5-22.5-14.6-35.3-16.1-9.8-1.2-21.3-2-34.1-2.5,9.3,13.1,22.1,33.9,29.5,57.8l24.9.4c-3-7.3-6.4-14.1-9.8-20.3Z"/></g><path class="h" d="M328.6,79.32s-.04,0-.06,0l-74.9-1.2c-1.73-.03-3.25-1.16-3.76-2.82-7.22-23.31-19.72-43.68-28.94-56.67-.88-1.24-.98-2.88-.26-4.22.73-1.34,2.15-2.15,3.67-2.09,12.08.47,23.65,1.32,34.39,2.52,25.32,2.99,49.94,22.6,73.2,58.29.81,1.24.87,2.82.15,4.12-.71,1.28-2.05,2.07-3.5,2.07ZM256.64,70.17l64.36,1.03c-15.13-21.65-37.28-45.34-63.16-48.41-8.14-.91-16.79-1.62-25.79-2.1,8.41,12.71,18.17,30,24.59,49.48Z"/><path class="i" d="M123.6,73.12l4.3-53.2c23.3-1.7,49-2.5,72.6-2.4,2.5,0,5,0,7.4.1,9,11.2,23.8,31.9,32.5,56.2l-116.8-.7Z"/><g class="e"><path class="b" d="M141.7,46.82c.7-9.2,9.1-16.5,19.6-17.1,17.3-.9,35.2-1.3,52.1-1.2h2.8c-3-4.3-5.8-8-8.3-11-2.5,0-4.9-.1-7.4-.1-23.6-.1-49.3.7-72.6,2.4l-4.3,53.2,16,.1,2.1-26.3Z"/></g><path class="h" d="M240.4,77.82h-.02l-116.8-.7c-1.11,0-2.17-.48-2.92-1.3-.75-.82-1.13-1.92-1.04-3.03l4.3-53.2c.16-1.97,1.73-3.52,3.7-3.67,22.71-1.66,48.6-2.51,72.91-2.41,2.44.02,5.07,0,7.55.1,1.15.05,2.23.59,2.95,1.49,8.5,10.57,24.1,32.08,33.15,57.36.44,1.23.25,2.6-.5,3.66-.75,1.06-1.97,1.69-3.26,1.69ZM127.93,69.15l106.65.64c-8.39-20.78-20.94-38.45-28.66-48.22-1.78-.04-3.62-.04-5.42-.04-22.91-.1-47.22.66-68.89,2.15l-3.68,45.48Z"/><path class="c" d="M95.4,173.62H22c-9.9,0-18-8.1-18-18h0c0-9.9,8.1-18,18-18h73.4v36Z"/><g class="e"><path class="g" d="M25.4,160.42c0-9.9,8.1-18,18-18h51.9v-4.7H21.9c-9.9,0-18,8.1-18,18h0c0,9.9,8.1,18,18,18h9.4c-3.6-3.3-5.9-8.1-5.9-13.3Z"/></g><path class="h" d="M95.4,177.62H22c-12.13,0-22-9.87-22-22s9.87-22,22-22h73.4c2.21,0,4,1.79,4,4v36c0,2.21-1.79,4-4,4ZM22,141.62c-7.72,0-14,6.28-14,14s6.28,14,14,14h69.4v-28H22Z"/><path class="c" d="M450.6,173.62h-60.1v-30h60.1c8.3,0,15,6.7,15,15h0c0,8.3-6.7,15-15,15Z"/><g class="e"><path class="g" d="M394.4,155.22h60.2c4.3,0,8.2,1.9,11,4.8,0-.5.1-.9.1-1.4h0c0-8.3-6.7-15-15-15h-60.1v30h4v-18.4h-.2Z"/></g><path class="h" d="M450.6,177.62h-60.1c-2.21,0-4-1.79-4-4v-30c0-2.21,1.79-4,4-4h60.1c10.48,0,19,8.52,19,19s-8.52,19-19,19ZM394.5,169.62h56.1c6.07,0,11-4.93,11-11s-4.93-11-11-11h-56.1v22Z"/><rect class="c" x="128.5" y="157.62" width="185.5" height="16"/><g class="e"><rect class="g" x="128.5" y="157.62" width="185.5" height="8"/></g><path class="h" d="M314,177.62h-185.5c-2.21,0-4-1.79-4-4v-16c0-2.21,1.79-4,4-4h185.5c2.21,0,4,1.79,4,4v16c0,2.21-1.79,4-4,4ZM132.5,169.62h177.5v-8h-177.5v8Z"/><path class="i" d="M115.4,18.92c-26.5,2.8-40.1,6.3-44.1,8.7-15.7,9.6-20.5,25.8-24.7,40.1-.5,1.6-.9,3.1-1.4,4.6-.1.4-.2.8-.4,1.2h66.9l3.7-54.6Z"/><g class="e"><path class="b" d="M61.9,72.92c4.2-14.3,8.9-30.5,24.7-40.1,3.1-1.9,12.1-4.4,28.4-6.7l.5-7.2c-26.5,2.8-40.1,6.3-44.1,8.7-15.7,9.6-20.5,25.8-24.7,40.1-.5,1.6-.9,3.1-1.4,4.6-.1.4-.2.8-.4,1.2h16.7c.2-.2.2-.4.3-.6Z"/></g><path class="h" d="M111.7,77.52H44.8c-1.39,0-2.67-.72-3.4-1.9-.73-1.18-.79-2.65-.17-3.89.04-.1.06-.24.1-.38.02-.1.05-.2.09-.3.28-.83.52-1.67.78-2.53.19-.65.39-1.32.6-2,4.16-14.17,9.36-31.88,26.43-42.32,5.7-3.42,22.38-6.79,45.77-9.27,1.18-.12,2.34.28,3.2,1.1.85.82,1.3,1.97,1.22,3.15l-3.7,54.6c-.14,2.1-1.89,3.73-3.99,3.73ZM50.23,69.52h57.73l3.12-46.1c-30.05,3.46-37.01,7.2-37.73,7.63-14.41,8.81-18.93,24.21-22.92,37.8-.07.23-.14.46-.21.67Z"/><path class="c" d="M455.7,112.62c1.1,6.8-5.2,12.4-15.2,13.3-9.5.9-20.4-3.3-22.2-10.1-1.1-6.8,10.3-12.9,19.9-13.8,9.5-.9,16.2,3.8,17.5,10.6Z"/><path class="h" d="M437.91,130.04c-10.1,0-21.21-4.66-23.47-13.2-.03-.13-.06-.25-.08-.38-.47-2.88.37-5.8,2.42-8.45,4.58-5.92,14.13-9.32,21.06-9.97,11.07-1.04,20.04,4.64,21.8,13.83,0,.04.01.08.02.11.6,3.72-.33,7.29-2.68,10.32-3.31,4.26-9.03,6.96-16.11,7.6-.97.09-1.96.14-2.95.14ZM422.23,115.02c1.38,4.25,10.11,7.67,17.89,6.92,4.79-.43,8.62-2.08,10.52-4.54.98-1.26,1.34-2.59,1.11-4.08-1-5.03-6.29-7.96-13.18-7.31-6.13.58-12.93,3.61-15.48,6.9-.61.79-.9,1.5-.87,2.11Z"/><path class="h" d="M282.6,95.52h-19c-2.21,0-4-1.79-4-4s1.79-4,4-4h19c2.21,0,4,1.79,4,4s-1.79,4-4,4Z"/><path class="h" d="M145.6,95.52h-20c-2.21,0-4-1.79-4-4s1.79-4,4-4h20c2.21,0,4,1.79,4,4s-1.79,4-4,4Z"/></svg>