<?xml version="1.0" encoding="UTF-8"?><svg id="a" xmlns="http://www.w3.org/2000/svg" viewBox="0 0 858.37 318.75"><defs><style>.cls-1{fill:#ffbf73;}.cls-2{fill:#135677;}.cls-3{stroke-width:8.02px;}.cls-3,.cls-4{fill:none;stroke:#135677;stroke-linecap:round;stroke-linejoin:round;}.cls-4{stroke-width:6.02px;}</style></defs><path class="cls-1" d="M796.09,5.27c-8.73-7.02-21.06-7.02-29.79,0-30.09,24.47-66.3,72.52-61.99,128.29,1.1,13.54,4.41,26.48,9.13,38.82.3.9.7,1.71,1.2,2.61,31.7,59.28,101.41,59.28,133.01,0,.4-.8.8-1.71,1.2-2.61,4.81-12.24,8.12-25.28,9.13-38.82,4.51-55.87-31.7-103.82-61.89-128.29h0Z"/><path class="cls-2" d="M783.98,318.65c.79-.73,1.28-1.78,1.28-2.94V102.06c0-2.22-1.8-4.01-4.01-4.01s-4.01,1.8-4.01,4.01v213.65c0,1.16.49,2.21,1.28,2.94h5.46Z"/><path class="cls-4" d="M802.11,72.47c-3.61,4.11-4.51,9.63-3.11,14.54,4.61.2,9.23-1.6,12.44-5.32,3.61-4.11,4.51-9.63,3.11-14.54-4.51-.2-9.13,1.6-12.44,5.32Z"/><path class="cls-4" d="M774.23,41.98c-.2,5.32,2.41,10.03,6.52,12.94,3.61-2.71,6.02-6.82,6.22-11.64.2-5.32-2.41-10.03-6.52-12.94-3.61,2.61-6.02,6.82-6.22,11.64Z"/><path class="cls-4" d="M744.23,88.32c1.4,5.32,5.32,9.23,10.23,10.83,2.71-3.71,3.91-8.53,2.61-13.34-1.4-5.32-5.32-9.23-10.23-10.83-2.81,3.71-3.91,8.63-2.61,13.34Z"/><path class="cls-4" d="M811.64,163.95c-3.61,3.21-5.12,8.02-4.41,12.54,4.01.7,8.33-.4,11.64-3.41,3.61-3.21,5.12-8.02,4.41-12.54-4.11-.6-8.43.5-11.64,3.41Z"/><path class="cls-3" d="M750.45,155.22s9.23,24.78,30.79,26.38"/><path class="cls-3" d="M781.15,155.83s19.56-8.43,21.16-28.99"/><path class="cls-1" d="M798.1,318.72c0-31.5-25.58-57.07-57.07-57.07-21.84,0-40.83,12.31-50.43,30.36-14.7,1.31-26.87,12.04-31.75,26.74h69.61s0-.02-.01-.03h69.65Z"/><path class="cls-2" d="M763.77,296.13c-1.54-1.59-4.08-1.64-5.67-.1l-12.96,12.5v-21.65c0-2.22-1.8-4.01-4.01-4.01s-4.01,1.8-4.01,4.01v31.09c0,.09.02.17.03.26.01.17.02.33.05.49h8.94l17.55-16.92c1.59-1.54,1.64-4.08.1-5.67Z"/><path class="cls-2" d="M73.36,318.75V49.91c0-1.29-.78-2.39-1.89-2.87L25.24.91c-1.22-1.22-3.2-1.22-4.42,0-1.22,1.22-1.22,3.2,0,4.42l46.28,46.18v267.23h6.25Z"/><rect class="cls-1" x="18.37" y="12.92" width="20.42" height="51.58" transform="translate(-19 31.55) rotate(-45)"/><path class="cls-2" d="M39.6,67.29c-.83,0-1.62-.33-2.21-.92L.92,29.9c-1.22-1.22-1.22-3.2,0-4.42l14.44-14.44c1.22-1.22,3.2-1.22,4.42,0l36.47,36.47c.59.59.92,1.38.92,2.21s-.33,1.62-.92,2.21l-14.44,14.44c-.59.59-1.38.92-2.21.92ZM7.55,27.69l32.05,32.05,10.02-10.02L17.57,17.67l-10.02,10.02Z"/><path class="cls-2" d="M86.59,318.75V101.54l46.18-46.18c1.22-1.22,1.22-3.2,0-4.42s-3.2-1.22-4.42,0l-46.13,46.13c-1.11.48-1.89,1.58-1.89,2.87v218.82h6.25Z"/><rect class="cls-1" x="99.27" y="78.44" width="51.58" height="20.42" transform="translate(-26.05 114.4) rotate(-45)"/><path class="cls-2" d="M114.05,117.23c-.8,0-1.6-.31-2.21-.92l-14.44-14.44c-1.22-1.22-1.22-3.2,0-4.42l36.47-36.47c1.17-1.17,3.25-1.17,4.42,0l14.44,14.44c.59.59.92,1.38.92,2.21s-.33,1.62-.92,2.21l-36.47,36.47c-.61.61-1.41.92-2.21.92ZM104.03,99.67l10.02,10.02,32.05-32.05-10.02-10.02-32.05,32.05Z"/></svg>